#!OML:ASF F:\VICON\USERDATA\INSTALL\rory3\rory3.ASF
:FULLY-SPECIFIED
:DEGREES
18
root 0.7988104938797563 18.325832731115153 -13.615262715578874 1.1405553174634302 -2.4727287677981282 -2.2884870166749343
lfemur -22.10409393591527 -1.1576006819871698 -20.42610930027711
ltibia 26.473754386897657
lfoot 5.346772729786471 -5.619119920802456
ltoes -4.56980427030543
rfemur 3.2903892314494563 3.3858123195544927 27.293516331542246
rtibia 70.80261119170588
rfoot 29.85191896136983 2.0588015639887214
rtoes 10.83630886302059
lowerback 10.706746138246855 2.0845421887721347 2.7881704938762057
upperback -1.620783096316586 3.2694237929850334 0.8235112555005903
thorax -7.562709985549717 1.4775868398756609 -1.3337053341418998
lowerneck -19.077161084911133 -3.873839614970393 -1.853421766963431
upperneck 19.673780254207756 -4.94880218588443 1.1821114517955207
head 9.226238970100205 -2.425847591832358 0.08949655250928917
lclavicle -2.2630160730071198e-15 6.838100326925943e-16
lhumerus -54.86677246064633 3.2749593495267932 85.67138390887408
lradius 55.975529656639196
lwrist 13.3464259981176
lhand -24.586314442018548 10.411203749879643
lfingers 7.125019999999999
lthumb 1.9110691807670255 40.39077540881071
rclavicle -2.2630160730071198e-15 6.838100326925943e-16
rhumerus -40.42376734023571 -4.685849598990312 -88.34509921704507
rradius 68.10701111899027
rwrist -2.1777260641172904
rhand -17.286171648518568 34.494651360741884
rfingers 7.125019999999999
rthumb 8.95911968933636 4.68947075722577
19
root 0.8369837263278933 18.479778788937214 -12.676647578212863 0.6817662676367813 -1.8680331682785152 -1.1687896855331124
lfemur -18.221373869169213 -1.0675936670034814 -22.595199739952225
ltibia 27.84109576121158
lfoot 1.6675750286225353 -5.1049538030222195
ltoes -5.72226454732893
rfemur -5.249991400482058 2.54054566134034 25.710988363669916
rtibia 84.60473661229729
rfoot 21.63328449506836 -2.673614925574016
rtoes 9.171102580159623
lowerback 12.04569480249462 1.838896785308307 1.3332831484542311
upperback -1.5574764583736596 2.775427012123842 0.6035774610532063
thorax -8.227267910991058 1.2802579398720653 -0.536905328766607
lowerneck -18.451615797898032 -3.582644458987561 -1.8035674435047904
upperneck 17.956166907886455 -4.597324423331143 1.2415514036614272
head 8.698099886599731 -2.229039587527396 0.1415890805918179
lclavicle -2.26301608779955e-15 6.838100572762385e-16
lhumerus -52.607567582477856 -0.04366850994241478 87.74025016470662
lradius 59.21418099138205
lwrist 15.315907461174337
lhand -24.71743353198915 12.98531932425981
lfingers 7.125019999999999
lthumb 1.7844835215790995 42.96097569778634
rclavicle -2.26301608779955e-15 6.838100572762385e-16
rhumerus -42.57664945476785 -5.038717945493846 -88.08580578083054
rradius 66.94383865428867
rwrist -2.4527012749314125
rhand -16.930920351671865 27.362066596553785
rfingers 7.125019999999999
rthumb 9.301964680859495 -2.386978559766823
20
root 0.854514480296858 18.461118677944373 -11.795997847141889 0.12965689669285052 -0.9941897413475429 -0.5498014845972687
lfemur -14.733534006879887 -1.5897247939931216 -23.803181451852904
ltibia 28.625817427595095
lfoot -1.7170482745074673 -4.454330502029454
ltoes -1.066043692246427
rfemur -13.76967524076802 1.1492287713797193 24.756759974631947
rtibia 92.8343964156046
rfoot 11.987527347724173 -8.050638444425726
rtoes 5.960530740215235
lowerback 12.382760112104192 1.4454541561131178 0.4306380523812259
upperback -0.4378465138777989 2.119717086218315 0.6088375714181833
thorax -7.516860273892474 1.0045329761468804 0.18632524600888867
lowerneck -19.716015873159606 -3.4256670596061642 -1.6836919986808134
upperneck 17.460004928238405 -4.308746887388548 1.004863102530173
head 8.703962536270081 -2.104077680004949 0.04722826773067257
lclavicle -2.2630161214190954e-15 6.838100496353678e-16
lhumerus -48.70202548113511 -0.933514609991537 88.16336948106186
lradius 61.45871741587237
lwrist 16.935236261597534
lhand -26.066703056298802 8.582882988030775
lfingers 7.125019999999999
lthumb 0.4812859697315844 38.56712316345323
rclavicle -2.2630161214190954e-15 6.838100496353678e-16
rhumerus -41.67636041358396 -7.254444025200521 -87.27529602148302
rradius 64.31005581454698
rwrist 0.72299565964473
rhand -16.665283172429962 29.496217397028726
rfingers 7.125019999999999
rthumb 9.558283799787777 -0.2601839739372769
21
root 0.8272106669220278 18.396885253020898 -9.888173656025893 -0.025664275820163396 -0.2873195491387359 -0.08445690930334004
lfemur -11.940018381107981 -1.7003801143964796 -25.262609610973584
ltibia 29.9329121934324
lfoot -3.940875448920777 -3.031319127019576
ltoes -2.6624661578406714
rfemur -20.528316858732087 1.2384063821620883 24.24418455340723
rtibia 96.07009364265701
rfoot 6.29671724521702 -8.985245358172918
rtoes 10.444898876067299
lowerback 12.890208041562683 0.9520645149217833 -0.19223991609968705
upperback -0.3173328088805241 1.386757727319139 0.6253339009869936
thorax -7.539481744791395 0.6828091298979811 0.7758107923594406
lowerneck -18.8761964275985 -3.2034246493566165 -1.9224472907565733
upperneck 17.143588266741173 -4.16168363792538 1.2264978361777565
head 8.499119149177654 -1.955056640665135 0.19694401079757262
lclavicle -2.267464903116223e-15 6.806731885062268e-16
lhumerus -44.39360218727614 -3.3764742672037733 89.20449473115633
lradius 63.58385027404835
lwrist 18.05734027624047
lhand -26.178342513875315 11.284551998551828
lfingers 7.125019999999999
lthumb 0.47837523748050137 41.1041185454187
rclavicle -2.264855031037094e-15 6.825204684225917e-16
rhumerus -43.621632409629335 -9.026891327122618 -86.65276355640374
rradius 63.69179014556212
rwrist 1.3021659654605267
rhand -16.741054187076458 30.129085536872953
rfingers 7.125019999999999
rthumb 9.428133858745122 0.26655210885346925
22
root 0.7981366335551577 18.26655667095504 -8.41671744580635 0.10960172968698878 0.5003556967708507 0.23818599034454646
lfemur -9.686368254582872 -1.5066994330488885 -26.443091320068778
ltibia 31.563215475458144
lfoot -4.993917688082503 -2.121742815415484
ltoes -4.908459185625917
rfemur -25.931749551663355 2.1127422700014757 23.62145825008043
rtibia 94.37702121757167
rfoot 0.36467380339179867 -7.485171666709249
rtoes 5.767370615296127
lowerback 13.295929989501495 0.5278068774565581 -0.6942114695698212
upperback -0.23757055228320473 0.7492604374397424 0.728605016212589
thorax -7.531983077797812 0.3793082083796531 1.3664237067114022
lowerneck -18.584309420926306 -3.0413166485586514 -2.105661661951291
upperneck 16.901440021225124 -3.882126947202748 1.232773202898911
head 8.391037505473893 -1.8211702819212872 0.24293039109894218
lclavicle -2.2668996073759168e-15 6.810708765391587e-16
lhumerus -40.06828346328857 -6.365663276492307 90.02571496084302
lradius 66.14631456113182
lwrist 18.679119521589378
lhand -26.53589720002969 11.762875875946506
lfingers 7.125019999999999
lthumb 0.09984490577610289 41.54834120396742
rclavicle -2.26467266351129e-15 6.826482405090535e-16
rhumerus -45.732973114961055 -9.882834702522555 -86.36817674053225
rradius 64.34954086365231
rwrist 0.45627521935867454
rhand -17.054105023320687 30.948104172335483
rfingers 7.125019999999999
rthumb 8.843719991424024 0.8712703982141483
23
root 0.7677339786854047 18.081050443615453 -7.1624012696926425 0.5901983769164164 1.1801671322687635 0.7574383555903621
lfemur -6.77146595096846 -0.8915696100756046 -27.636412512502293
ltibia 31.771565459787336
lfoot -5.55422376823692 -2.046542629125041
ltoes -5.200111508093414
rfemur -29.652264067421523 3.979468333353425 22.220141669121062
rtibia 87.92853620900968
rfoot -3.6298006500372293 -7.5156567303003845
rtoes -1.244677524233384
lowerback 13.445721770395934 0.26659553230297417 -1.4246050303637279
upperback -0.17835775851212682 0.24032525090594192 0.7647790948238884
thorax -7.5120461930938855 0.1558137982069437 1.97196233451494
lowerneck -18.5825234429103 -3.110821006391898 -2.3966280237217266
upperneck 16.48989097609568 -3.935966531142136 1.4655231018145174
head 8.31457506446332 -1.8352492766886779 0.32054063984165837
lclavicle -2.264827032045815e-15 6.825227319198243e-16
lhumerus -35.336499639660374 -9.289384152808037 90.36540824975073
lradius 68.98518064604892
lwrist 19.278919176922294
lhand -26.912361381682384 12.081897556824694
lfingers 7.125019999999999
lthumb -0.17647277629195163 42.199335218781464
rclavicle -2.2637346430697435e-15 6.83305888683906e-16
rhumerus -47.66174729726126 -10.030336693845177 -86.14212808680509
rradius 65.55524928078694
rwrist -0.9743803462304829
rhand -17.08709604360553 31.184550441727215
rfingers 7.125019999999999
rthumb 8.904172439921464 0.879806283982435
